<mxfile host="Electron" agent="Mozilla/5.0 (Macintosh; Intel Mac OS X 10_15_7) AppleWebKit/537.36 (KHTML, like Gecko) draw.io/27.0.9 Chrome/134.0.6998.205 Electron/35.4.0 Safari/537.36" version="27.0.9">
  <diagram name="Page-1" id="NuE_loCFF0ZCaUq2ItOF">
    <mxGraphModel dx="2066" dy="912" grid="1" gridSize="10" guides="1" tooltips="1" connect="1" arrows="1" fold="1" page="1" pageScale="1" pageWidth="850" pageHeight="1100" math="0" shadow="0">
      <root>
        <mxCell id="0" />
        <mxCell id="1" parent="0" />
        <mxCell id="ZOI24Rt-o88_AwXLBd1F-15" style="edgeStyle=orthogonalEdgeStyle;rounded=0;orthogonalLoop=1;jettySize=auto;html=1;exitX=1;exitY=0.5;exitDx=0;exitDy=0;entryX=0.5;entryY=0;entryDx=0;entryDy=0;entryPerimeter=0;" edge="1" parent="1" source="ZOI24Rt-o88_AwXLBd1F-1" target="ZOI24Rt-o88_AwXLBd1F-13">
          <mxGeometry relative="1" as="geometry">
            <mxPoint x="740" y="450" as="targetPoint" />
          </mxGeometry>
        </mxCell>
        <mxCell id="ZOI24Rt-o88_AwXLBd1F-1" value="Withdraw" style="ellipse;whiteSpace=wrap;html=1;" vertex="1" parent="1">
          <mxGeometry x="410" y="360" width="140" height="70" as="geometry" />
        </mxCell>
        <mxCell id="ZOI24Rt-o88_AwXLBd1F-14" style="edgeStyle=orthogonalEdgeStyle;rounded=0;orthogonalLoop=1;jettySize=auto;html=1;exitX=1;exitY=0.5;exitDx=0;exitDy=0;entryX=0.5;entryY=0.5;entryDx=0;entryDy=0;entryPerimeter=0;" edge="1" parent="1" source="ZOI24Rt-o88_AwXLBd1F-2" target="ZOI24Rt-o88_AwXLBd1F-13">
          <mxGeometry relative="1" as="geometry">
            <mxPoint x="730" y="510" as="targetPoint" />
          </mxGeometry>
        </mxCell>
        <mxCell id="ZOI24Rt-o88_AwXLBd1F-2" value="Deposit" style="ellipse;whiteSpace=wrap;html=1;" vertex="1" parent="1">
          <mxGeometry x="410" y="470" width="140" height="70" as="geometry" />
        </mxCell>
        <mxCell id="ZOI24Rt-o88_AwXLBd1F-16" style="edgeStyle=orthogonalEdgeStyle;rounded=0;orthogonalLoop=1;jettySize=auto;html=1;exitX=1;exitY=0.5;exitDx=0;exitDy=0;entryX=0;entryY=1;entryDx=0;entryDy=0;entryPerimeter=0;" edge="1" parent="1" source="ZOI24Rt-o88_AwXLBd1F-3" target="ZOI24Rt-o88_AwXLBd1F-13">
          <mxGeometry relative="1" as="geometry">
            <mxPoint x="730" y="510" as="targetPoint" />
          </mxGeometry>
        </mxCell>
        <mxCell id="ZOI24Rt-o88_AwXLBd1F-3" value="Balance" style="ellipse;whiteSpace=wrap;html=1;" vertex="1" parent="1">
          <mxGeometry x="410" y="580" width="140" height="70" as="geometry" />
        </mxCell>
        <mxCell id="ZOI24Rt-o88_AwXLBd1F-7" style="edgeStyle=orthogonalEdgeStyle;rounded=0;orthogonalLoop=1;jettySize=auto;html=1;exitX=1;exitY=0.3333333333333333;exitDx=0;exitDy=0;exitPerimeter=0;entryX=0;entryY=0.5;entryDx=0;entryDy=0;" edge="1" parent="1" source="ZOI24Rt-o88_AwXLBd1F-4" target="ZOI24Rt-o88_AwXLBd1F-1">
          <mxGeometry relative="1" as="geometry" />
        </mxCell>
        <mxCell id="ZOI24Rt-o88_AwXLBd1F-11" style="edgeStyle=orthogonalEdgeStyle;rounded=0;orthogonalLoop=1;jettySize=auto;html=1;exitX=0.5;exitY=0.5;exitDx=0;exitDy=0;exitPerimeter=0;" edge="1" parent="1" source="ZOI24Rt-o88_AwXLBd1F-4" target="ZOI24Rt-o88_AwXLBd1F-2">
          <mxGeometry relative="1" as="geometry" />
        </mxCell>
        <mxCell id="ZOI24Rt-o88_AwXLBd1F-12" style="edgeStyle=orthogonalEdgeStyle;rounded=0;orthogonalLoop=1;jettySize=auto;html=1;exitX=1;exitY=1;exitDx=0;exitDy=0;exitPerimeter=0;entryX=0;entryY=0.5;entryDx=0;entryDy=0;" edge="1" parent="1" source="ZOI24Rt-o88_AwXLBd1F-4" target="ZOI24Rt-o88_AwXLBd1F-3">
          <mxGeometry relative="1" as="geometry" />
        </mxCell>
        <mxCell id="ZOI24Rt-o88_AwXLBd1F-4" value="User" style="shape=umlActor;verticalLabelPosition=bottom;verticalAlign=top;html=1;" vertex="1" parent="1">
          <mxGeometry x="210" y="460" width="30" height="60" as="geometry" />
        </mxCell>
        <mxCell id="ZOI24Rt-o88_AwXLBd1F-13" value="system" style="shape=umlActor;verticalLabelPosition=bottom;verticalAlign=top;html=1;" vertex="1" parent="1">
          <mxGeometry x="710" y="470" width="30" height="60" as="geometry" />
        </mxCell>
      </root>
    </mxGraphModel>
  </diagram>
</mxfile>
